<svg id="a9b07524-03c6-4d9a-9b06-29c0908d31a5" data-name="Layer 1" xmlns="http://www.w3.org/2000/svg" viewBox="0 0 1534.85 1276.03">
    <title>LOGO</title>
    <defs>
        <style>
            .smile{fill:#191E35;}
        </style>
    </defs>
    <g class="smile" id="e4f95694-d31b-4879-b774-bdc53ab677c8" data-name="FC0DZc">
        <path d="M1617.08,815.33c-22.73,32.47-56.23,41.92-92.69,33.14-21.55-5.18-42-17.21-61.26-29-27-16.54-47.25-18.5-66.36-2.25-18.59,15.82-22.56,38.47-8,65.8,12.49,23.48,28.76,44.91,42.15,67.94,31.07,53.49,40.32,108.91,5.81,164.08-30,47.9-89.38,66.82-142.27,48.56-52.63-18.18-86.55-69.53-83.37-125.84,1.94-34.43,12-65.84,31.63-94.52,14-20.4,27.53-41.29,38.82-63.23,13.06-25.37,8.06-48.71-10.4-63.78-18.2-14.86-39.91-14.74-63.09,2.23-26.8,19.62-54.92,33.79-89.39,32.51-44.93-1.66-80.87-36.52-82.53-81.33-1.64-43.94,33.07-82.25,78-85.47,26.75-1.91,51.84,3.83,74.41,18.88,8.46,5.64,16.61,11.77,25.24,17.12,20.5,12.71,41.69,11.63,58.45-2.57,15.84-13.43,22.38-34.88,12.31-55.25-12.31-24.94-27-48.88-42.52-72-24.86-37.11-35.41-77.32-28.87-121.28,9.2-61.86,59.32-103.76,122.08-103.52,78.83.29,132.84,66.75,121.23,148.59-4.49,31.67-17.6,59.2-35.57,85.32A477.49,477.49,0,0,0,1385.13,660c-10.44,21.34-4.79,43.7,11.15,57.37,17.18,14.73,39.07,15.88,59.94,2,23.31-15.5,45.77-32,75.17-34.79,37.28-3.57,68.34,6.39,88.59,39.41C1638.77,754.62,1637.63,786,1617.08,815.33Z" transform="translate(-230.96 -365.54)"/><path d="M944.59,815.73c-22.52,31.67-55.5,41.81-91,32.78-24.44-6.22-47.22-20.62-69.42-33.61-34.24-20-74.65-2.22-75.88,36.05-.38,11.93,4.39,25.21,10.33,35.91,12.61,22.73,28.15,43.81,41.4,66.21,27.41,46.32,35.8,95.45,13.64,145.86-23.37,53.16-79.74,80.17-137.07,68.61-54.35-11-95.8-60.34-97.59-116.93-1.22-38.63,9.14-73.92,30.86-106.15,13.82-20.52,27.51-41.32,39-63.17,13.54-25.73,9.3-48.7-8.8-64.16-18.56-15.86-40.31-15.87-64.54,1.69-26.89,19.48-55,33.61-89.54,32.2-44.63-1.82-81-37.56-82.06-81.89s33.92-82.28,78.55-85c25.37-1.56,49.39,3.23,71,17.31,8.52,5.55,16.87,11.36,25.39,16.91,21.84,14.23,42.49,14.25,60.09.17s23.53-36.63,11.93-60.25c-10.58-21.55-23.53-42.13-37.18-61.94-27.13-39.37-40.78-82-32.36-129.62C552.26,405,601.12,365.33,663.65,365.6c60.89.26,110.29,41.49,119.75,101.61,6.56,41.67-1.67,80.86-24.61,116.73-14.7,23-30.27,45.59-42.93,69.69-13.68,26-9.26,49.08,8.67,64.08,18.43,15.44,40,15,64.8-1.89C811,701.07,832.54,687,859.85,684.5c37.36-3.45,68.48,6.82,88.4,39.87C966.72,755,965.44,786.4,944.59,815.73Z" transform="translate(-230.96 -365.54)"/><path d="M1762.06,1012.69c-7.67,18.52-24.34,24.48-49.72,17.86a49.15,49.15,0,0,0-6.85-.9c-6.93,36-11.48,72-20.91,106.66-54.65,200.85-178.14,347.7-366.73,430.77-287.19,126.49-559,93.17-802.16-109.85C391.38,1353.44,320.17,1217,300.63,1055c-.82-6.83-2.18-13.59-2.86-17.75-16.43,0-32.57,4-45.38-.84-26.34-9.93-28.65-46.64-5.53-63.73,35.95-26.57,77.21-34.48,120.85-32.2a229.36,229.36,0,0,1,37.64,5.53c24.42,5.45,36.68,23,32.86,45.42-3.33,19.61-20.49,31.44-44.1,30.37-3-.14-6-.38-13.59-.86,6.75,34.78,10.8,68.16,19.82,100.14,47,166.36,150.39,288.1,305.08,361.39,245.73,116.41,482.59,94.44,700.06-69.65,124.09-93.62,194.23-222.88,211.42-378.9.68-6.15.09-12.43.09-20.23-7,.48-13,1.17-19.1,1.27-20,.32-37.33-14.32-40.05-33.67-2.36-16.81,9.76-37,27.42-40.92,55-12.21,108.69-10.83,158.14,20.59C1764.55,974.43,1770.63,992,1762.06,1012.69Z" transform="translate(-230.96 -365.54)"/>
    </g>
</svg>