<svg id="ea70e005-c3d7-4575-a7c5-1ec67d91e15b" data-name="Layer 1" xmlns="http://www.w3.org/2000/svg" viewBox="0 0 3367.62 3745.19"><defs><style>.a8b2cd17-1ce9-4d56-aa4b-bd238dbbfe67{fill:#191e35;}</style></defs><title>LOGO</title><path class="a8b2cd17-1ce9-4d56-aa4b-bd238dbbfe67" d="M3680.8,3469.72l-392.16-3031c-23-178-174.63-311.26-354.1-311.26H1065.46a357,357,0,0,0-354.1,311.26l-392.16,3031c-27.64,213.59,138.72,402.87,354.1,402.87h775.78c139.14,0,266-80.59,324-207C1918.8,3348.6,2000,2995.92,2000,2624.21c0,371.71,81.2,724.39,226.88,1041.39,58.09,126.4,184.9,207,324,207H3326.7C3542.08,3872.59,3708.44,3683.31,3680.8,3469.72ZM2000,2242.28c0-478.56-387.93-866.45-866.45-866.45,320.7,0,600.73-174.27,750.54-433.25C1957.83,815.13,2000,667.16,2000,509.34a862.75,862.75,0,0,0,115.91,433.24c149.85,259,429.84,433.25,750.54,433.25C2387.93,1375.83,2000,1763.72,2000,2242.28Z" transform="translate(-316.19 -127.41)"/></svg>