<svg id="b58322ae-cc4f-4996-bec5-60a922476f2c" data-name="Layer 1" xmlns="http://www.w3.org/2000/svg" viewBox="0 0 2000 2000"><defs><style>.b063ba30-67f5-4389-85cf-bb6de88f62de{fill:#fff;}</style></defs><title>LOGO-1</title><rect x="210" y="210" width="1580" height="1580" rx="200.04"/><path class="b063ba30-67f5-4389-85cf-bb6de88f62de" d="M1005.47,354.8H994.53C750.13,354.8,552,552.93,552,797.33V1395c0,138.17,112,250.17,250.17,250.17H988v-344a12.26,12.26,0,0,1,11.78-12.4,12,12,0,0,1,12.22,12v344.4h185.83C1336,1645.2,1448,1533.2,1448,1395V797.33C1448,552.93,1249.87,354.8,1005.47,354.8ZM1141,836.8h0a129,129,0,0,0-129,129v173.65a12.33,12.33,0,0,1-12,12.35,12,12,0,0,1-12-12V965.45A128.65,128.65,0,0,0,859.35,836.8h0a12.33,12.33,0,0,1-12.35-12,12,12,0,0,1,12-12h0a129,129,0,0,0,129-129V511.15a12.33,12.33,0,0,1,12-12.35,12,12,0,0,1,12,12V684.2a128.6,128.6,0,0,0,128.6,128.6h0a12.26,12.26,0,0,1,12.4,11.78A12,12,0,0,1,1141,836.8Z"/></svg>