<svg id="ece326ea-9d12-4e13-9d43-9c90ecdbbbb6" data-name="f61a9c28-aa7f-4173-8d6e-46a9b60fb757" xmlns="http://www.w3.org/2000/svg" viewBox="0 0 255.16 269.89"><defs><style>.b120fe40-6ce8-4265-b771-fe4ba29a2bc1{fill:#f2f2f2;}.aca67e8b-39d2-4a66-bbaf-79f811e57b02{fill:#9491d9;}</style></defs><title>sticker-1</title><g id="ba5ecb71-eafe-4672-897e-f0ba8df24412" data-name="M3o2cf"><path class="b120fe40-6ce8-4265-b771-fe4ba29a2bc1" d="M945.28,897.48a11.82,11.82,0,0,0-9.69-.25c-1.57.59-3.11.6-3.79-1.17s.71-2.73,2.11-3.4c2.8-1.35,5.8-1.33,8.81-1.06,1,.09,2.06.43,2.52-.86a2.75,2.75,0,0,0-.75-2.76c-2.48-2.94-5.58-1.91-8.27-.72-9.3,4.12-16.45,10.53-20.11,20.28-.78,2.06-1.73,3.71-4.23,3.29-2.69-.45-3.34-2.31-3.12-4.8.59-6.74-1-13.23-2.25-19.77s-2.07-13.14-.79-19.81c1.73-9,5.54-17.42,7.54-26.18a55.12,55.12,0,0,0-.86-28.13c-4.37-14.42-14.55-23.68-27.32-30.64a3.61,3.61,0,0,0-3.76-.2c-1.52,1-.22,2.43.21,3.54,1.51,3.88,3.07,7.73,3.68,11.9.25,1.67.75,3.44-1.23,4.36s-2.61-.82-3.61-1.87c-3.16-3.28-6.21-6.18-11.07-7.57-12.76-3.63-25.66-3.51-38.67-3.17-11.15.29-22.48,2-33.4-.32-7.79-1.62-12.43,1.27-16.38,6.69-10.37,14.26-18.55,29.65-21.43,47.26a22.7,22.7,0,0,1-6.88,13.21c-28.39,28.38-28.33,69.44.13,97.69,21.92,21.76,49.17,30.26,79.34,31.05a99.77,99.77,0,0,0,17.46-1.3c34.23-5.88,62-21.53,79.73-52.5,2.38-4.16,3.57-7.38-1.32-10.7-1.82-1.24-4.9-4.07-2-6.56,3-2.63,3.91,1.51,5.37,3.09,3.55,3.85,7.84,5.06,12.7,3.48a11.17,11.17,0,0,0,8.12-10.33A11.63,11.63,0,0,0,945.28,897.48ZM820.87,864.73a17.35,17.35,0,0,1,3.13,4.42,2.16,2.16,0,0,1-1,3,2,2,0,0,1-2.66-.55c-.9-1-1.65-2.09-2.6-3a9.14,9.14,0,0,0-13-.2,9.27,9.27,0,0,0-.41,13.38c2.36,2.3,4.83,5.05,9,3,1.79-.9,4.6-2.19,5.26,1.06.57,2.78-2.35,3.12-4.35,3.69a11.36,11.36,0,0,1-2.49.28,14.4,14.4,0,0,1-8-26.68A14.39,14.39,0,0,1,820.87,864.73ZM852.32,950c-3.71,6.76-9.91,10.15-17.28,11.56a72.15,72.15,0,0,1-13.5,1.27c-28.35-1.41-52.16-11.33-67.56-36.64-4.56-7.5-7.31-15.64-7.05-24.59.2-6.94,2.58-12.7,9-16.12s12.41-1.93,17.95,1.72a65.84,65.84,0,0,1,10.84,9.45c6.62,6.84,14.8,11.71,23.56,15.5,10,4.3,20.56,6.19,31.12,8.26C851.9,922.84,860.52,935.09,852.32,950Z" transform="translate(-726.35 -719.14)"/><path d="M971.37,793.86c-8.25-20.57-21.88-37.18-40-50-25-17.67-53.12-24.83-88.74-24.72-13.22.22-31.55,1.65-48.49,10.39s-24.3,22.57-21.42,41.43c.4,2.61-.64,3.11-2.61,3.65a31,31,0,0,0-15.6,10.29c-11.95,14.07-13,32.59-3.09,50.36,4.3,7.68,4,9.81-2.13,16-31.36,31.77-30.51,77,2.14,107.43,19,17.71,41.88,26.64,67.37,29.54,49.78,5.66,99.2-20.85,116.86-60.1.93-2.07,2.08-3,4.52-2.94,9.47.32,18.08-9.37,16.77-18.35-.36-2.5.5-4,2.41-5.47,9-7,14.6-16.4,17.71-27.19C985,846.79,981.83,820,971.37,793.86ZM952.05,909.25a11.17,11.17,0,0,1-8.12,10.33c-4.86,1.58-9.15.37-12.7-3.48-1.46-1.58-2.33-5.72-5.37-3.09-2.88,2.49.2,5.32,2,6.56,4.89,3.32,3.7,6.54,1.32,10.7-17.74,31-45.5,46.62-79.73,52.5a99.77,99.77,0,0,1-17.46,1.3c-30.17-.79-57.42-9.29-79.34-31.05-28.46-28.25-28.52-69.31-.13-97.69a22.7,22.7,0,0,0,6.88-13.21c2.88-17.61,11.06-33,21.43-47.26,3.95-5.42,8.59-8.31,16.38-6.69,10.92,2.27,22.25.61,33.4.32,13-.34,25.91-.46,38.67,3.17,4.86,1.39,7.91,4.29,11.07,7.57,1,1,1.76,2.72,3.61,1.87s1.48-2.69,1.23-4.36c-.61-4.17-2.17-8-3.68-11.9-.43-1.11-1.73-2.51-.21-3.54a3.61,3.61,0,0,1,3.76.2c12.77,7,22.95,16.22,27.32,30.64a55.12,55.12,0,0,1,.86,28.13c-2,8.76-5.81,17.2-7.54,26.18-1.28,6.67-.5,13.27.79,19.81s2.84,13,2.25,19.77c-.22,2.49.43,4.35,3.12,4.8,2.5.42,3.45-1.23,4.23-3.29,3.66-9.75,10.81-16.16,20.11-20.28,2.69-1.19,5.79-2.22,8.27.72a2.75,2.75,0,0,1,.75,2.76c-.46,1.29-1.56,1-2.52.86-3-.27-6-.29-8.81,1.06-1.4.67-2.82,1.58-2.11,3.4s2.22,1.76,3.79,1.17a11.82,11.82,0,0,1,9.69.25A11.63,11.63,0,0,1,952.05,909.25Z" transform="translate(-726.35 -719.14)"/><path d="M839.43,920.39c-10.56-2.07-21.16-4-31.12-8.26-8.76-3.79-16.94-8.66-23.56-15.5a65.84,65.84,0,0,0-10.84-9.45c-5.54-3.65-11.61-5.08-17.95-1.72s-8.83,9.18-9,16.12c-.26,8.95,2.49,17.09,7.05,24.59,15.4,25.31,39.21,35.23,67.56,36.64a72.15,72.15,0,0,0,13.5-1.27c7.37-1.41,13.57-4.8,17.28-11.56C860.52,935.09,851.9,922.84,839.43,920.39Zm-1.83,35.49c-13.81,3.62-27.4,2.34-40.77-2a71.08,71.08,0,0,1-31-19.33c-2.41-2.59-2.38-4,.49-6.21,10.26-7.78,25.25-7.84,34.79.29-2.45,1.85-7.53.78-6.52,4.5,1.16,4.35,5.12,1.13,7.66.61,18.45-3.73,29.46,1,37.72,16.14C841.93,953.44,841.23,954.92,837.6,955.88Z" transform="translate(-726.35 -719.14)"/><path d="M795.08,814.92c5-.15,7.72,2.93,7,7.07-.49,2.89-2.12,5.25-3.87,7.45a54.39,54.39,0,0,0-11,25.23c-1.3,7.63-4.06,10.73-8.64,10-4.29-.63-6.13-4.19-5.47-11.66.36-4.11-.12-8.93,5.73-10.22,1.63-.36,1.2-1.81.29-2.74-2.43-2.49-1.16-4.82.1-7.24,2.67-5.19,5.49-10.27,9.8-14.34C791,816.66,793.19,815.22,795.08,814.92Z" transform="translate(-726.35 -719.14)"/><path d="M873.83,833.36c5.55-.17,8.5,3.22,7.73,7.78-.54,3.18-2.34,5.78-4.27,8.2a59.91,59.91,0,0,0-12.11,27.77c-1.44,8.41-4.47,11.81-9.52,11.06-4.72-.7-6.74-4.62-6-12.84.4-4.53-.13-9.83,6.31-11.25,1.79-.4,1.32-2,.32-3-2.68-2.74-1.27-5.3.1-8,3-5.71,6.06-11.3,10.8-15.77C869.33,835.28,871.75,833.69,873.83,833.36Z" transform="translate(-726.35 -719.14)"/><path d="M811.76,889.76a14.4,14.4,0,0,1-8-26.68,14.37,14.37,0,0,1,17.1,1.65,17.42,17.42,0,0,1,3.13,4.42,2.15,2.15,0,0,1-1,3,2,2,0,0,1-2.66-.54c-.9-1-1.65-2.09-2.6-3a9.14,9.14,0,0,0-13-.21,9.28,9.28,0,0,0-.4,13.38c2.36,2.31,4.83,5,9,3,1.79-.9,4.6-2.19,5.26,1,.57,2.78-2.35,3.12-4.36,3.7A11.86,11.86,0,0,1,811.76,889.76Z" transform="translate(-726.35 -719.14)"/><path class="aca67e8b-39d2-4a66-bbaf-79f811e57b02" d="M801.14,928.66c-2.46,1.85-7.53.77-6.53,4.49,1.17,4.35,5.13,1.13,7.67.62,18.45-3.73,29.45,1,37.72,16.14,1.92,3.52,1.22,5-2.4,6-13.81,3.62-27.4,2.34-40.77-2a71.06,71.06,0,0,1-31-19.32c-2.41-2.6-2.38-4.05.48-6.22C776.61,920.59,791.6,920.53,801.14,928.66Z" transform="translate(-726.35 -719.14)"/></g></svg>